                       <svg
                         width="25"
                         height="12"
                         viewBox="0 0 25 12"
                         fill="none"
                         xmlns="http://www.w3.org/2000/svg"
                        >
                         <path
                           fillRule="evenodd"
                           clipRule="evenodd"
                           d="M0.675014 0.0807117C0.809463 0.0290147 0.953934 0.00161209 1.10018 6.90142e-05C1.24642 -0.00147406 1.39157 0.0228727 1.52733 0.0717186C1.66309 0.120564 1.78681 0.192953 1.89142 0.284748C1.99603 0.376543 2.07947 0.485947 2.13699 0.606712L1.11372 1.00071L2.13811 0.606712L2.14145 0.614712L2.16483 0.659712L2.2695 0.853712C2.36525 1.02571 2.51334 1.27771 2.71488 1.58271C3.2463 2.38449 3.86951 3.13422 4.57437 3.81971C4.78563 4.02384 5.00474 4.22129 5.23131 4.41171C6.88146 5.80071 9.18745 7.00071 12.2484 7.00071C13.4751 7.00575 14.6918 6.80146 15.8337 6.39871C17.1999 5.91571 18.3435 5.18871 19.281 4.40071C20.5349 3.33218 21.5655 2.0706 22.3241 0.675712L22.3542 0.617712L22.3597 0.606712C22.4788 0.366721 22.6983 0.17847 22.9707 0.0826601C23.2432 -0.0131498 23.5466 -0.00881993 23.8155 0.0947136C24.0844 0.198247 24.2971 0.392665 24.4077 0.635933C24.5182 0.879201 24.5177 1.15177 24.4063 1.39471L24.4041 1.39971L24.3996 1.40771L24.3873 1.43371L24.3428 1.52071C24.0955 1.98329 23.8201 2.4333 23.5177 2.86871C22.9612 3.67166 22.3234 4.42685 21.6126 5.12471L22.5 5.92171C22.709 6.10922 22.8264 6.36359 22.8265 6.62886C22.8266 6.89413 22.7094 7.14857 22.5006 7.33621C22.2918 7.52385 22.0086 7.62932 21.7132 7.62941C21.4178 7.62951 21.1345 7.52422 20.9256 7.33671L19.9903 6.49671C19.3321 6.97451 18.6248 7.39507 17.878 7.75271L18.7488 8.95471C18.8309 9.06474 18.8879 9.18832 18.9164 9.31829C18.9449 9.44826 18.9444 9.58202 18.9149 9.71181C18.8854 9.8416 18.8274 9.96482 18.7444 10.0743C18.6614 10.1838 18.555 10.2774 18.4314 10.3497C18.3078 10.422 18.1694 10.4715 18.0243 10.4953C17.8792 10.5191 17.7303 10.5169 17.5862 10.4886C17.4421 10.4603 17.3057 10.4066 17.1849 10.3306C17.0641 10.2545 16.9614 10.1577 16.8826 10.0457L15.7847 8.53171C15.0287 8.73971 14.2214 8.88671 13.3618 8.95571V10.5007C13.3618 10.7659 13.2445 11.0203 13.0357 11.2078C12.8269 11.3954 12.5437 11.5007 12.2484 11.5007C11.9531 11.5007 11.6698 11.3954 11.461 11.2078C11.2522 11.0203 11.1349 10.7659 11.1349 10.5007V8.95671C10.272 8.88671 9.4647 8.73971 8.71089 8.53171L7.61412 10.0457C7.44945 10.2602 7.19806 10.4085 6.91348 10.459C6.6289 10.5096 6.33358 10.4584 6.09039 10.3164C5.8472 10.1743 5.67534 9.95263 5.61139 9.69851C5.54743 9.44439 5.59643 9.17788 5.74796 8.95571L6.61869 7.75271C5.83926 7.38271 5.13555 6.95271 4.50644 6.49571L3.57113 7.33571C3.36113 7.51787 3.07987 7.61866 2.78792 7.61639C2.49598 7.61411 2.21671 7.50894 2.01026 7.32353C1.80382 7.13812 1.68671 6.88731 1.68418 6.62511C1.68164 6.36292 1.79387 6.11031 1.9967 5.92171L2.88413 5.12471C2.0964 4.35089 1.39872 3.50685 0.801949 2.60571C0.564284 2.24573 0.344711 1.87636 0.143892 1.49871L0.0937862 1.39871L0.0926727 1.39671C0.0893323 1.39671 0.0893324 1.39471 0.00111372 1.00071L0.0904458 1.39571Z"
                           fill="#F4A470"
                         />
                       </svg>