                    <svg
                      width="22"
                      height="20"
                      className="absolute top-3 right-4"
                      viewBox="0 0 22 20"
                      fill="none"
                      xmlns="http://www.w3.org/2000/svg"
                    >
                      <path
                        d="M19.4424 18.1653L18.7402 18.8674L15.6738 15.801L15.4414 15.5696L15.1357 15.6897C13.8534 16.1969 12.456 16.4749 11 16.4749C6.28259 16.4749 2.24281 13.5833 0.540039 9.47388C1.28379 7.6673 2.48801 6.10477 3.99902 4.91821L4.44238 4.57056L4.04395 4.17114L1.71582 1.84399L2.4209 1.13306L19.4424 18.1653ZM4.80762 5.54712C3.54109 6.5101 2.46765 7.74917 1.73047 9.25513L1.62305 9.47485L1.73047 9.69458C3.46401 13.2352 7.01821 15.4749 11 15.4749C11.9994 15.4749 12.9641 15.3277 13.8818 15.0774L14.7129 14.8508L12.8848 13.0227L12.5742 13.1555C12.0946 13.3598 11.5609 13.4749 11 13.4749C8.79614 13.4749 7 11.6787 7 9.47485C7.00003 8.91452 7.11554 8.37996 7.32129 7.88794L7.4502 7.57837L7.21387 7.34106L5.15527 5.28247L4.80762 5.54712ZM11 2.47485C15.7171 2.47485 19.7561 5.36675 21.459 9.47583C20.8562 10.9362 19.9558 12.2334 18.833 13.3108L18.1348 12.6125C18.9993 11.789 19.7305 10.8092 20.2705 9.69263L20.376 9.47388L20.2695 9.25513C18.536 5.71449 14.9818 3.47485 11 3.47485C10.3714 3.47485 9.76505 3.54879 9.17773 3.65552L8.31738 2.79517C9.1782 2.58644 10.075 2.47485 11 2.47485ZM8.00977 9.34497C8.00977 9.33562 8.01127 9.32801 8.00879 9.3479C8.0063 9.36778 8.00001 9.41554 8 9.47485C8 11.131 9.34386 12.4749 11 12.4749C11.1123 12.4749 11.2129 12.4468 11.2412 12.4397L12.0977 12.2258L8.00977 8.13794V9.34497ZM11 5.47485C13.1368 5.47485 14.8862 7.15265 14.9854 9.25806L14.9902 9.46313V9.46509L14.9893 9.46802L13.6895 8.16724C13.396 7.55973 12.9037 7.06659 12.2959 6.77368L10.9961 5.47485C10.9974 5.47485 10.9987 5.47485 11 5.47485Z"
                        fill="#f4a470"
                        stroke="#F4A470"
                      />
                    </svg>