<svg
  width="20"
  height="12"
  viewBox="0 0 20 12"
  fill="none"
  xmlns="http://www.w3.org/2000/svg"
>
  <path
    d="M18.3333 11.8334H13.3333V8.50008H11.1C10.15 10.5167 8.1 11.8334 5.83333 11.8334C2.61667 11.8334 0 9.21675 0 6.00008C0 2.78341 2.61667 0.166748 5.83333 0.166748C8.1 0.166748 10.1417 1.48341 11.1 3.50008H20V8.50008H18.3333V11.8334ZM15 10.1667H16.6667V6.83342H18.3333V5.16675H9.95L9.75833 4.60841C9.175 2.95008 7.59167 1.83341 5.83333 1.83341C3.53333 1.83341 1.66667 3.70008 1.66667 6.00008C1.66667 8.30008 3.53333 10.1667 5.83333 10.1667C7.59167 10.1667 9.175 9.05008 9.75833 7.39175L9.95 6.83342H15V10.1667ZM5.83333 8.50008C4.45833 8.50008 3.33333 7.37508 3.33333 6.00008C3.33333 4.62508 4.45833 3.50008 5.83333 3.50008C7.20833 3.50008 8.33333 4.62508 8.33333 6.00008C8.33333 7.37508 7.20833 8.50008 5.83333 8.50008ZM5.83333 5.16675C5.375 5.16675 5 5.54175 5 6.00008C5 6.45842 5.375 6.83342 5.83333 6.83342C6.29167 6.83342 6.66667 6.45842 6.66667 6.00008C6.66667 5.54175 6.29167 5.16675 5.83333 5.16675Z"
    fill="#F4A470"
/>
</svg>
