        <svg
          width="61"
          height="61"
          viewBox="0 0 61 61"
          fill="none"
          xmlns="http://www.w3.org/2000/svg"
        >
          <mask
            id="uniqueMask"
            maskUnits="userSpaceOnUse"
            x="0"
            y="0"
            width="61"
            height="61"
          >
            <rect width="61" height="61" fill="#D9D9D9" />
          </mask>
          <g mask="url(#uniqueMask)">
            <path
              d="M24.591 35.6904L26.8149 28.4417L20.9691 23.7364H28.2128L30.5003 16.6149L32.7878 23.7364H40.0316L34.1222 28.4417L36.3462 35.6904L30.5003 31.1759L24.591 35.6904ZM15.2503 59.344V39.6962C13.6406 37.9159 12.391 35.8811 11.5014 33.5921C10.6118 31.303 10.167 28.8656 10.167 26.2798C10.167 20.5996 12.1368 15.7883 16.0764 11.846C20.016 7.90375 24.8239 5.93262 30.5003 5.93262C36.1767 5.93262 40.9847 7.90375 44.9243 11.846C48.8639 15.7883 50.8337 20.5996 50.8337 26.2798C50.8337 28.8656 50.3889 31.303 49.4993 33.5921C48.6097 35.8811 47.3601 37.9159 45.7503 39.6962V59.344L30.5003 54.2572L15.2503 59.344ZM30.5003 41.5402C34.7364 41.5402 38.3371 40.0566 41.3024 37.0893C44.2677 34.122 45.7503 30.5188 45.7503 26.2798C45.7503 22.0408 44.2677 18.4377 41.3024 15.4704C38.3371 12.5031 34.7364 11.0194 30.5003 11.0194C26.2642 11.0194 22.6635 12.5031 19.6982 15.4704C16.733 18.4377 15.2503 22.0408 15.2503 26.2798C15.2503 30.5188 16.733 34.122 19.6982 37.0893C22.6635 40.0566 26.2642 41.5402 30.5003 41.5402ZM20.3337 51.7774L30.5003 49.1704L40.667 51.7774V43.8929C39.1844 44.7407 37.5852 45.4083 35.8696 45.8958C34.154 46.3833 32.3642 46.627 30.5003 46.627C28.6364 46.627 26.8467 46.3833 25.1311 45.8958C23.4154 45.4083 21.8163 44.7407 20.3337 43.8929V51.7774Z"
              fill="#F4A470"
            />
          </g>
        </svg>