                  <svg
                    className="w-6 h-6 mr-2"
                    viewBox="0 0 30 30"
                    fill="none"
                    xmlns="http://www.w3.org/2000/svg"
                  >
                    <path
                      d="M15 28.7549L13.1875 27.1288C11.0833 25.2317 9.34375 23.5951 7.96875 22.2192C6.59375 20.8433 5 19.608 4.1875 18.5135C3.375 17.419 2.80729 16.4132 2.48438 15.4959C2.16146 14.5786 2 13.6404 2 12.6814C2 10.7218 2.65625 9.08524 3.96875 7.77185C5.28125 6.45846 6.91667 5.80176 8.875 5.80176C9.95833 5.80176 10.9896 6.03108 11.9688 6.48973C12.9479 6.94837 13.7917 7.59465 14.5 8.42855C15.2083 7.59465 16.0521 6.94837 17.0312 6.48973C18.0104 6.03108 19.0417 5.80176 20.125 5.80176C22.0833 5.80176 23.7188 6.45846 25.0312 7.77185C26.3438 9.08524 27 10.7218 27 12.6814C27 13.6404 26.8385 14.5786 26.5156 15.4959C26.1927 16.4132 25.625 17.419 24.8125 18.5135C24 19.608 22.9062 20.8433 21.5312 22.2192C20.1562 23.5951 18.4167 25.2317 16.3125 27.1288L14.5 28.7549Z"
                      fill="#F4A470"
                    />
                  </svg>