            <svg
              width="37"
              height="24"
              viewBox="0 0 37 25"
              fill="none"
              xmlns="http://www.w3.org/2000/svg"
            >
              <path
                d="M33.9167 7.87533V4.79199H30.8333V7.87533H27.75V10.9587H30.8333V14.042H33.9167V10.9587H37V7.87533H33.9167Z"
                fill="#F4A470"
              />
              <path
                d="M12.3333 12.5003C15.7404 12.5003 18.5 9.74074 18.5 6.33366C18.5 2.92658 15.7404 0.166992 12.3333 0.166992C8.92625 0.166992 6.16667 2.92658 6.16667 6.33366C6.16667 9.74074 8.92625 12.5003 12.3333 12.5003ZM12.3333 3.25033C14.0292 3.25033 15.4167 4.63783 15.4167 6.33366C15.4167 8.02949 14.0292 9.41699 12.3333 9.41699C10.6375 9.41699 9.25 8.02949 9.25 6.33366C9.25 4.63783 10.6375 3.25033 12.3333 3.25033Z"
                fill="#F4A470"
              />
              <path
                d="M12.3333 14.042C8.21708 14.042 0 16.1078 0 20.2087V24.8337H24.6667V20.2087C24.6667 16.1078 16.4496 14.042 12.3333 14.042ZM21.5833 21.7503H3.08333V20.2241C3.39167 19.1141 8.17083 17.1253 12.3333 17.1253C16.4958 17.1253 21.275 19.1141 21.5833 20.2087V21.7503Z"
                fill="#F4A470"
              />
              <path
                d="M19.2862 0.244076C20.7046 1.87824 21.5833 4.00574 21.5833 6.33366C21.5833 8.66158 20.7046 10.7891 19.2862 12.4232C22.3079 12.0378 24.6667 9.47866 24.6667 6.33366C24.6667 3.18866 22.3079 0.629492 19.2862 0.244076Z"
                fill="#F4A470"
              />
              <path
                d="M25.4838 15.3216C26.8558 16.6012 27.75 18.2045 27.75 20.2087V24.8337H30.8333V20.2087C30.8333 17.9732 28.3821 16.3391 25.4838 15.3216Z"
                fill="#F4A470"
              />
            </svg>