                    <svg
                      width="14"
                      height="14"
                      className="text-primary"
                      viewBox="0 0 14 14"
                      fill="none"
                      xmlns="http://www.w3.org/2000/svg"
                    >
                      <path
                        d="M6.99992 1.99992C7.91658 1.99992 8.66658 2.74992 8.66658 3.66659C8.66658 4.58325 7.91658 5.33325 6.99992 5.33325C6.08325 5.33325 5.33325 4.58325 5.33325 3.66659C5.33325 2.74992 6.08325 1.99992 6.99992 1.99992ZM6.99992 10.3333C9.24992 10.3333 11.8333 11.4083 11.9999 11.9999H1.99992C2.19159 11.3999 4.75825 10.3333 6.99992 10.3333ZM6.99992 0.333252C5.15825 0.333252 3.66659 1.82492 3.66659 3.66659C3.66659 5.50825 5.15825 6.99992 6.99992 6.99992C8.84159 6.99992 10.3333 5.50825 10.3333 3.66659C10.3333 1.82492 8.84159 0.333252 6.99992 0.333252ZM6.99992 8.66658C4.77492 8.66658 0.333252 9.78325 0.333252 11.9999V13.6666H13.6666V11.9999C13.6666 9.78325 9.22492 8.66658 6.99992 8.66658Z"
                        fill="#F4A470"
                      />
                    </svg>